<svg width="841" height="333" viewBox="0 0 841 333" fill="none" xmlns="http://www.w3.org/2000/svg">
<path d="M377.069 174.244C374.638 169.289 372.016 168.024 368.587 163.644C364.461 158.373 357.254 155.286 352.003 151.217C347.571 147.784 344.351 143.183 340.132 139.59C335.849 135.943 330.934 133.433 326.09 130.665C320.905 127.703 315.408 126.094 310.02 123.67C304.034 120.977 298.528 117.317 292.262 115.275C278.09 110.659 264.817 109.347 249.989 108.328C235.542 107.336 221.336 105.755 206.8 106.447C196.132 106.955 186.737 111.827 176.737 115.083C166.315 118.475 154.324 120.98 144.694 126.372C135.377 131.588 130.207 142.026 122.158 148.854C114.949 154.969 109.102 162.584 105.028 171.239C102.968 175.614 133.095 189.128 138.132 192.853C165.409 195.798 164.749 201.657 182.797 202.158C193.319 202.45 207.102 212.702 217.573 214.03C225.708 215.062 236.597 214.838 244.715 215.817C261.299 217.818 272.914 207.27 289.67 207.133C309.165 198.449 323.588 194.215 340.132 195.798C351.694 191.508 356.523 198.828 366.094 190.826C370.463 187.172 374.224 182.987 378.255 178.958C379.953 177.26 381.911 174.284 383.949 173.265" stroke="black" stroke-width="10" stroke-linecap="round"/>
<path d="M70.5 92.9495C73.7036 95.3414 75.346 98.2355 77.6053 101.723C80.3224 105.918 84.0693 109.261 87.4981 112.577C92.5744 117.486 96.9575 123.196 101.982 128.175C105.023 131.188 107.968 134.173 110.836 137.404C112.611 139.402 115.154 141.237 116.247 143.838" stroke="black" stroke-width="10" stroke-linecap="round"/>
<path d="M116.415 26.5061C119.016 39.2743 128.527 50.1049 134.656 61.4351C139.014 69.4923 141.936 77.6015 144.886 86.2324C147.242 93.1232 151.353 97.3936 155.503 102.925" stroke="black" stroke-width="10" stroke-linecap="round"/>
<path d="M220.578 13.5496C220.578 31.5783 220.381 49.4236 223.86 67.1974C225.019 73.1213 225.621 86.3826 231.002 89.9688" stroke="black" stroke-width="10" stroke-linecap="round"/>
<path d="M302.188 8.46143C302.004 18.3492 300.45 28.053 300.45 37.987C300.45 46.5228 299.506 54.7645 298.617 63.2189C297.434 74.4492 294.37 84.8068 294.37 96.1699" stroke="black" stroke-width="10" stroke-linecap="round"/>
<path d="M386.526 67.821C385.987 92.0846 366.003 111.255 363.074 134.688" stroke="black" stroke-width="10" stroke-linecap="round"/>
<path d="M513.237 183.074C514.9 177.184 517.719 172.866 521.299 167.738C526.008 160.995 529.388 153.222 535 147.039C544.627 136.431 559.337 127.989 572.418 121.157C595.294 109.21 618.539 104.955 644.698 106.742C657.961 107.649 670.152 110.359 682.918 113.699C693.986 116.595 703.336 121.939 713.363 126.839C721.409 130.77 727.69 136.961 735.723 140.787C745.216 145.308 753.313 151.237 761.163 157.797C766.589 162.331 771.53 164.123 768.653 171.343C764.568 181.591 755.292 187.581 747.247 195.597C738.047 204.764 727.862 212.852 714.837 214.229C699.435 215.857 684.759 219.953 669.268 221.384C661.432 222.108 653.584 222.82 645.725 223.33C634.991 224.027 637.984 218.7 627.253 218.693C609.045 218.682 593.536 211.385 575.937 206.398C563.985 203.01 548.262 202.476 537.768 195.798C532.786 192.628 512.654 189.662 508.615 185.461" stroke="black" stroke-width="10" stroke-linecap="round"/>
<path d="M488.181 109.208C498.117 117.583 506.328 130.009 518.582 135.26" stroke="black" stroke-width="10" stroke-linecap="round"/>
<path d="M527.27 47.552C531.762 62.2059 539.744 76.912 547.055 90.3928C550.362 96.4907 553.448 105.236 559.408 109.209" stroke="black" stroke-width="10" stroke-linecap="round"/>
<path d="M611.524 5V90.9719" stroke="black" stroke-width="10" stroke-linecap="round"/>
<path d="M706.203 11.0784C706.203 39.3448 695.151 65.2133 690.567 92.7077" stroke="black" stroke-width="10" stroke-linecap="round"/>
<path d="M764.4 70.1296C760.365 89.4013 744.484 103.812 738.342 122.234" stroke="black" stroke-width="10" stroke-linecap="round"/>
<path d="M588.055 149.381C586.16 157.204 587.01 165.683 590.418 172.976C596.596 186.196 603.651 199.811 615.307 209.886C624.493 217.825 637.362 224.227 650.324 222.804C660.104 221.73 669.518 214.516 676.08 208.26C685.064 199.695 692.119 188.315 696.146 177.106C700.717 164.382 700.175 145.119 691.13 134.221C681.145 122.192 667.443 112.1 650.517 110.493C634.985 109.02 616.803 107.176 604.984 118.139C596.701 125.823 591.628 139.278 588.056 149.381" stroke="black" stroke-width="10" stroke-linecap="round"/>
<path d="M655.775 150.21C655.653 145.341 653.363 144.225 649.271 142.407C646.763 141.293 643.92 139.65 641.033 140.866C638.212 142.053 634.544 142.988 631.975 144.623C629.661 146.095 627.191 149.231 624.989 150.21C619.704 152.558 617.768 158.724 618.533 164.082C619.647 171.877 626.762 174.992 633.42 176.894C636.903 177.889 641.759 177.251 644.983 175.786C648.975 173.972 649.176 171.818 651.439 168.224C653.792 164.488 654.908 159.345 654.908 154.978C654.908 153.603 654.421 145.504 654.908 146.357C659.64 154.636 659.443 168.252 649.753 172.655C646.746 174.022 651.888 165.049 653.366 163.407C654.959 161.638 652.63 164.627 652.258 165.045C647.999 169.835 642.721 170.85 636.697 172.752" stroke="black" stroke-width="6" stroke-linecap="round"/>
<path d="M537.835 190.958C545.735 193.234 553.381 194.984 561.25 196.835C564.6 197.623 567.71 197.608 570.789 199.147C573.675 200.589 577.243 201.806 580.328 202.663C585.618 204.132 592.662 207.431 598.154 207.431C603.331 207.431 609.474 208.592 606.152 215.234C603.922 219.693 600.099 222.21 598.732 227.372C596.418 236.111 595.31 244.587 595.986 253.719C596.361 258.774 597.865 261.954 597.865 267C597.865 270.276 600.011 280.045 603.55 273.323C609.408 262.195 604.61 248.485 604.61 236.861C604.61 230.214 601.84 224.492 603.743 217.835C603.99 216.971 604.311 215.821 605.044 215.234C605.163 215.139 603.225 219.352 602.683 220.436C598.839 228.122 596.739 235.796 597.865 244.519C598.382 248.526 599.407 252.366 599.407 256.416C599.407 262.759 602.288 243.757 601.334 237.487C600.174 229.863 599.407 243.894 599.407 245.627C599.407 251.767 600.274 270.167 600.274 264.027C600.274 260.018 601.141 248.025 601.141 252.033C601.141 256.32 601.141 260.607 601.141 264.894C601.141 266.773 601.887 257.462 601.334 259.258C600.46 262.099 602.654 268.52 601 271" stroke="black" stroke-width="6" stroke-linecap="round"/>
<path d="M599.415 298.5C599.415 306.511 597.672 316.894 597.672 324.908C597.672 329.803 597.945 332.113 601.527 327.509C604.519 323.663 602.546 317.102 601.334 313.011C600.066 308.733 599.407 302.028 599.407 297.598" stroke="black" stroke-width="6" stroke-linecap="round"/>
<path d="M644.501 149.343C640.168 144.01 634.475 145.795 629.711 150.017C628.527 151.066 617.153 163.949 625.23 162.155C629.139 161.286 635.761 156.184 636.6 151.992C637.409 147.95 632.794 145.243 629.759 147.801C627.569 149.647 620.023 162.54 627.302 158.687C630.841 156.814 642.214 148.795 636.889 143.852C633.439 140.649 627.417 146.523 628.555 150.162C630.135 155.219 637.119 147.065 638.238 145.2C639.505 143.09 639.386 137.387 635.685 140.625C634.215 141.911 625.052 156.799 632.361 155.219C636.597 154.303 641.122 147.602 638.768 143.418C635.604 137.795 626.237 154.614 625.808 156.664C624.968 160.69 627.077 172.894 633.565 166.972C636.58 164.219 638.627 156.125 633.228 154.737C631.051 154.178 627.254 157.981 627.254 160.132C627.254 161.978 630.523 155.773 630.626 155.412" stroke="black" stroke-width="6" stroke-linecap="round"/>
<path d="M519.624 171.885C512.831 177.231 506.773 182.405 501.413 189.224" stroke="black" stroke-width="6" stroke-linecap="round"/>
<path d="M631.288 166C632.806 171.4 633.225 178.62 640.167 178.157C646.08 177.763 650.055 170.018 652.135 165.324C654.102 160.887 657.333 154.053 654.548 149.307C651.986 144.944 643.953 143.795 639.974 146.654C634.642 150.485 616.365 173.815 629.599 177.675C642.526 181.445 651.626 162.557 645.669 152.298C643.186 148.024 634.267 144.93 629.744 147.474C624.694 150.314 623.471 158.037 623.471 163.202C623.471 169.844 629.363 171.777 635.438 171.017C644.704 169.859 647.394 159.717 647.743 151.864C647.91 148.13 646.048 142.033 640.891 144.869C635.773 147.684 635.352 157.184 637.079 161.948C639.318 168.12 648.74 171.368 654.74 171.21C660.233 171.066 646.171 160.392 644.8 159.583C642.385 158.16 635.871 154.127 634.377 158.473C633.204 161.884 632.704 165.896 632.35 169.474C632.287 170.108 632.327 177.675 631.723 177.675C628.664 177.675 636.95 155.363 638.671 153.118C645.097 144.738 646.459 158.555 645.669 163.008C644.588 169.092 634.55 178.709 630.42 169.763C627.422 163.27 629.355 156.56 637.368 156.448C641.086 156.395 646.718 160.455 644.993 164.938C643.433 168.994 636.686 163.312 638.768 159.149C640.827 155.031 644.866 157.787 645.138 161.175C645.472 165.357 638.72 168.498 637.079 164.022C635.79 160.507 637.355 148.222 643.738 152.781C646.086 154.457 645.319 159.747 644.993 162.14C644.415 166.376 641.322 168.527 637.368 169.474C628.917 171.497 629.512 160.029 633.701 155.772C641.612 147.731 645.631 160.923 641.953 167.158C638.345 173.274 629.235 172.239 629.696 164.408C630.086 157.78 637.463 159.884 639.105 164.263" stroke="black" stroke-width="10" stroke-linecap="round"/>
<path d="M221.711 114.215C234.464 109.877 255.233 106.583 269.485 118.75C280.516 128.167 284.058 140.322 284.058 152.907C284.058 170.462 277.077 187.587 266.3 201.441C255.402 215.448 232.262 216.192 216.306 213.212C207.804 211.624 202.35 209.34 195.267 204.528C190.236 201.111 183.514 196.707 181.561 190.634C179.418 183.966 180.599 175.351 180.693 168.441C180.803 160.433 182.31 151.795 185.905 144.608C193.389 129.645 206.162 119.503 221.711 114.215Z" stroke="black" stroke-width="10" stroke-linecap="round"/>
<path d="M232.58 139.806C222.122 143.886 207.783 156.866 210.9 169.332C212.746 176.715 222.641 178.82 229.111 178.82C239.723 178.82 248.922 170.785 251.466 160.614C251.59 160.118 253.058 153.774 252.092 153.774C251.879 153.774 247.605 166.232 246.407 167.55C242.286 172.082 236.525 178.123 230.027 178.772C227.38 179.037 223.125 179.794 227.907 178.339C237.633 175.379 250.35 165.796 246.648 153.87C244.823 147.991 240.117 141.785 233.254 141.54C228.564 141.372 224.108 143.374 221.306 147.175C219.138 150.118 215.499 159.14 219.186 162.299C223.387 165.899 229.856 161.437 232.002 157.146C234.779 151.592 231.412 143.118 226.124 151.173C224.32 153.922 220.431 171.668 228.051 168.898C233.593 166.884 233.614 152.161 228.437 154.448C224.254 156.296 220.413 173.696 227.569 172.174C233.072 171.003 241.402 154.551 233.254 154.93C227.744 155.186 225.973 169.591 230.942 169.139C239.088 168.399 242.278 151.495 234.314 153.485C229.285 154.742 226.234 169.139 231.809 166.972C238.495 164.372 238.512 150.17 229.978 152.57C224.591 154.085 220.727 168.55 226.895 166.297C230.81 164.867 233.941 160.399 234.17 156.279C234.273 154.43 233.791 148.412 230.653 149.054C222.796 150.66 223.575 166.571 231.713 161.095C238.491 156.534 233.529 151.077 227.377 151.077" stroke="black" stroke-width="6" stroke-linecap="round"/>
<path d="M140.657 190.091C145.45 190.203 149.768 191.344 154.339 192.692C156.59 193.356 160.726 193.79 162.53 195.101C166.085 197.686 171.705 199.023 176.164 199.58C187.217 200.962 197.399 205.697 208.732 205.697C213.389 205.697 217.708 207.431 222.559 207.431C227.623 207.431 231.9 207.595 236.724 208.973C240.99 210.191 250.139 210.034 254.308 208.732C259.53 207.1 265.116 208.181 270.544 206.372C277.434 204.076 283.872 200.76 290.683 198.328C293.977 197.152 297.944 197.925 301.089 196.353C304.868 194.464 308.73 193.548 312.797 192.644C321.491 190.713 329.609 189.224 338.572 189.224C342.218 189.224 356.654 190.832 358.325 187.49" stroke="black" stroke-width="6" stroke-linecap="round"/>
<path d="M201.361 215.234C196.631 219.868 194.629 221.004 190 225.632C187.847 227.785 185.792 234.432 184.691 236.909C182.717 241.35 182.282 246.311 182.282 251.214C182.282 255.482 187 257.353 187 261.5C187 266.667 183.29 270.922 181.222 275.057C179.147 279.206 173.61 282.912 173.61 288.061C173.61 291.433 172.355 299.959 177.079 299.284C184.324 298.249 183.775 285.173 186.233 280.258C187.793 277.138 197.893 264.138 198 260.5C198.11 256.763 197.133 253.214 197.133 249.422C197.133 235.754 187.853 231.739 194.857 219.136C195.373 218.206 190.168 224.613 189.22 227.179C187.397 232.111 188.01 237.827 187.437 242.978C187.004 246.872 185.751 250.473 185.751 254.441C185.751 257.848 195.825 256.734 194.857 260C193.742 263.76 183.22 272.001 181.029 275.442C179.766 277.427 178.037 281.176 177.946 283.534C177.918 284.261 177.614 289.699 178.38 289.699C180.318 289.699 185.368 280.032 185.799 278.091C187.685 269.609 184.017 281.617 184.017 285.027C184.017 290.078 178.38 292.14 178.38 297" stroke="black" stroke-width="6" stroke-linecap="round"/>
<path d="M205.697 205.697C203.747 208.847 201.528 212.766 199.193 215.62C197.849 217.262 197.376 219.982 195.724 221.303C195.458 221.516 198.529 218.296 199.627 216.101" stroke="black" stroke-width="6" stroke-linecap="round"/>
<path d="M189.22 236.042C192.305 228.422 196.274 221.158 201.361 214.801C201.907 214.118 203.866 211.233 203.866 210.466C203.866 208.503 198.26 213.999 197.892 214.367" stroke="black" stroke-width="6" stroke-linecap="round"/>
<path d="M196.158 241.244C195.231 236.498 194.661 231.423 195.965 226.698C196.584 224.456 202.589 213.56 203.047 211.5C204.178 206.414 194.3 229.592 193.508 234.742C193.398 235.459 191.515 240.726 191.87 238.065C192.111 236.256 194.825 224.943 193.364 226.89C192.211 228.426 188.449 235.6 188.449 235.512C188.449 233.71 192.306 227.375 190.762 225.831C190.458 225.527 199.214 211.404 203.5 209.5C205.515 208.605 203.728 203.981 203.047 205.457C201.359 209.113 199.385 212.544 197.7 216.101C196.303 219.049 200.299 210.773 200.879 209.695C203.209 205.37 196.72 218.597 194.616 223.037C193.011 226.426 191.176 231.026 190.955 234.79C190.814 237.179 190.51 241.186 189.654 243.411C189.372 244.144 188.682 250.156 189.413 247.313C190.478 243.173 191.582 238.833 192.737 234.79C194.345 229.163 191.822 246.47 191.822 252.322C191.822 259.327 189.888 265.635 187.679 272.263C185.948 277.454 182.637 282.466 179.296 286.761C176.812 289.954 180.985 281.526 181.415 280.451C183.747 274.623 178.366 283.622 177.609 284.883C176.477 286.77 174.8 295.605 176.405 292.396C176.904 291.398 178.298 287.341 178.862 289.314C179.08 290.077 181.783 288.377 179.681 291.529" stroke="black" stroke-width="6" stroke-linecap="round"/>
<path d="M233.871 146.513C219.359 147.061 218.236 155.204 218.236 167.355C218.236 174.084 226.694 175.171 232.134 175.171C239.968 175.171 242.712 170.622 246.514 164.074C248.839 160.07 252.221 153.872 249.844 149.118C246.974 143.38 240.209 140.751 234.354 140C224.625 138.753 220.84 147.223 214.762 153.46C211.151 157.165 211.993 161.653 212.156 166.679C212.358 172.953 217.07 176.35 223.013 175.991C232.134 175.171 237.276 164.111 241.592 157.947C243.876 154.684 242.19 150.388 239.952 147.574C237.246 144.174 232.416 141.234 228.08 140.723C224.369 140.287 221.693 146.705 219.973 149.118C217.217 152.987 210.624 163.268 212.252 168.56C212.864 170.548 217.969 171.791 219.587 172.179C223.715 173.167 227.452 172.275 230.879 169.911C236.517 166.024 241.455 157.279 239.855 150.083C238.162 142.466 224.955 148.773 222.193 151.819C218.123 156.31 214.368 169.509 218.622 174.977C225.515 183.836 233.819 173.117 234.547 166.004C235.198 159.645 231.624 153.29 224.799 152.64C219.689 152.154 217.828 161.95 221.132 164.653C229.313 171.345 236.366 162.485 236.477 154.714C236.589 146.861 227.316 146.887 223.834 152.784C220.508 158.419 221.278 166.293 229.48 164.653C233.64 163.821 235.006 151.485 230.348 150.904C225.578 150.307 219.673 159.951 224.027 162.82C231.923 168.023 243.017 155.314 238.504 147.96C237.196 145.83 232.198 146.118 230.397 147.285C226.911 149.544 225.526 154.17 226.198 158.092C226.936 162.391 238.066 163.623 235.078 156.982C233.072 152.527 226.787 153.649 226.923 158.67C227.063 163.887 234.564 161.343 232.81 161.275C224.672 160.962 233.028 163.72 235.03 161.565C238.136 158.22 233.231 150.626 229.528 154.329" stroke="black" stroke-width="10" stroke-linecap="round"/>
<path d="M376.536 166.683C375.055 166.053 369.661 163.65 373.79 166.008C376.109 167.333 378.355 168.848 380.535 170.391C380.537 170.393 382.251 171.798 382.221 171.692C382.121 171.342 377.585 168.774 377.018 168.465C375.898 167.854 373.934 164.926 373.934 166.201C373.934 167.601 383.898 171.907 381.546 171.21C379.64 170.646 376.833 170.351 375.332 168.85C373.542 167.061 380.165 170.352 382.606 171.018" stroke="black" stroke-width="6" stroke-linecap="round"/>
</svg>
