<svg width="841" height="333" viewBox="0 0 841 333" fill="none" xmlns="http://www.w3.org/2000/svg">
<path d="M377.069 174.244C374.638 169.289 372.016 168.024 368.587 163.644C364.461 158.373 357.254 155.286 352.003 151.217C347.571 147.784 344.351 143.183 340.132 139.59C335.849 135.943 330.934 133.433 326.09 130.665C320.905 127.703 315.408 126.094 310.02 123.67C304.034 120.977 298.528 117.317 292.262 115.275C278.09 110.659 264.817 109.347 249.989 108.328C235.542 107.336 221.336 105.755 206.8 106.447C196.132 106.955 186.737 111.827 176.737 115.083C166.315 118.475 154.324 120.98 144.694 126.372C135.377 131.588 130.207 142.026 122.158 148.854C114.949 154.969 109.102 162.584 105.028 171.239C102.968 175.614 133.095 189.128 138.132 192.853C165.409 195.798 164.749 201.657 182.797 202.158C193.319 202.45 207.102 212.702 217.573 214.03C225.708 215.062 236.597 214.838 244.715 215.817C261.299 217.818 272.914 207.27 289.67 207.133C309.165 198.449 323.588 194.215 340.132 195.798C351.694 191.508 356.523 198.828 366.094 190.826C370.463 187.172 374.224 182.987 378.255 178.958C379.953 177.26 381.911 174.284 383.949 173.265" stroke="black" stroke-width="10" stroke-linecap="round"/>
<path d="M513.237 183.074C514.9 177.184 517.719 172.866 521.299 167.738C526.008 160.995 529.388 153.222 535 147.039C544.627 136.431 559.337 127.989 572.418 121.157C595.294 109.21 618.539 104.955 644.698 106.742C657.961 107.649 670.152 110.359 682.918 113.699C693.986 116.595 703.336 121.939 713.363 126.839C721.409 130.77 727.69 136.961 735.723 140.787C745.216 145.308 753.313 151.237 761.163 157.797C766.589 162.331 771.53 164.123 768.653 171.343C764.568 181.591 755.292 187.581 747.247 195.597C738.047 204.764 727.862 212.852 714.837 214.229C699.435 215.857 684.759 219.953 669.268 221.384C661.432 222.108 653.584 222.82 645.725 223.33C634.991 224.027 637.984 218.7 627.253 218.693C609.045 218.682 593.536 211.385 575.937 206.398C563.985 203.01 548.262 202.476 537.768 195.798C532.786 192.628 512.654 189.662 508.615 185.461" stroke="black" stroke-width="10" stroke-linecap="round"/>
<path d="M537.835 190.958C545.735 193.234 553.381 194.984 561.25 196.835C564.6 197.623 567.71 197.608 570.789 199.147C573.675 200.589 577.243 201.806 580.328 202.663C585.618 204.132 592.662 207.431 598.154 207.431C603.331 207.431 609.474 208.592 606.152 215.234C603.922 219.693 600.099 222.21 598.732 227.372C596.418 236.111 595.31 244.587 595.986 253.719C596.361 258.774 597.865 261.954 597.865 267C597.865 270.276 600.011 280.045 603.55 273.323C609.408 262.195 604.61 248.485 604.61 236.861C604.61 230.214 601.84 224.492 603.743 217.835C603.99 216.971 604.311 215.821 605.044 215.234C605.163 215.139 603.225 219.352 602.683 220.436C598.839 228.122 596.739 235.796 597.865 244.519C598.382 248.526 599.407 252.366 599.407 256.416C599.407 262.759 602.288 243.757 601.334 237.487C600.174 229.863 599.407 243.894 599.407 245.627C599.407 251.767 600.274 270.167 600.274 264.027C600.274 260.018 601.141 248.025 601.141 252.033C601.141 256.32 601.141 260.607 601.141 264.894C601.141 266.773 601.887 257.462 601.334 259.258C600.46 262.099 602.654 268.52 601 271" stroke="black" stroke-width="6" stroke-linecap="round"/>
<path d="M599.415 298.5C599.415 306.511 597.672 316.894 597.672 324.908C597.672 329.803 597.945 332.113 601.527 327.509C604.519 323.663 602.546 317.102 601.334 313.011C600.066 308.733 599.407 302.028 599.407 297.598" stroke="black" stroke-width="6" stroke-linecap="round"/>
<path d="M519.624 171.885C512.831 177.231 506.773 182.405 501.413 189.224" stroke="black" stroke-width="6" stroke-linecap="round"/>
<path d="M140.657 190.091C145.45 190.203 149.768 191.344 154.339 192.692C156.59 193.356 160.726 193.79 162.53 195.101C166.085 197.686 171.705 199.023 176.164 199.58C187.217 200.962 197.399 205.697 208.732 205.697C213.389 205.697 217.708 207.431 222.559 207.431C227.623 207.431 231.9 207.595 236.724 208.973C240.99 210.191 250.139 210.034 254.308 208.732C259.53 207.1 265.116 208.181 270.544 206.372C277.434 204.076 283.872 200.76 290.683 198.328C293.977 197.152 297.944 197.925 301.089 196.353C304.868 194.464 308.73 193.548 312.797 192.644C321.491 190.713 329.609 189.224 338.572 189.224C342.218 189.224 356.654 190.832 358.325 187.49" stroke="black" stroke-width="6" stroke-linecap="round"/>
<path d="M201.361 215.234C196.631 219.868 194.629 221.004 190 225.632C187.847 227.785 185.792 234.432 184.691 236.909C182.717 241.35 182.282 246.311 182.282 251.214C182.282 255.482 187 257.353 187 261.5C187 266.667 183.29 270.922 181.222 275.057C179.147 279.206 173.61 282.912 173.61 288.061C173.61 291.433 172.355 299.959 177.079 299.284C184.324 298.249 183.775 285.173 186.233 280.258C187.793 277.138 197.893 264.138 198 260.5C198.11 256.763 197.133 253.214 197.133 249.422C197.133 235.754 187.853 231.739 194.857 219.136C195.373 218.206 190.168 224.613 189.22 227.179C187.397 232.111 188.01 237.827 187.437 242.978C187.004 246.872 185.751 250.473 185.751 254.441C185.751 257.848 195.825 256.734 194.857 260C193.742 263.76 183.22 272.001 181.029 275.442C179.766 277.427 178.037 281.176 177.946 283.534C177.918 284.261 177.614 289.699 178.38 289.699C180.318 289.699 185.368 280.032 185.799 278.091C187.685 269.609 184.017 281.617 184.017 285.027C184.017 290.078 178.38 292.14 178.38 297" stroke="black" stroke-width="6" stroke-linecap="round"/>
<path d="M205.697 205.697C203.747 208.847 201.528 212.766 199.193 215.62C197.849 217.262 197.376 219.982 195.724 221.303C195.458 221.516 198.529 218.296 199.627 216.101" stroke="black" stroke-width="6" stroke-linecap="round"/>
<path d="M189.22 236.042C192.305 228.422 196.274 221.158 201.361 214.801C201.907 214.118 203.866 211.233 203.866 210.466C203.866 208.503 198.26 213.999 197.892 214.367" stroke="black" stroke-width="6" stroke-linecap="round"/>
<path d="M196.158 241.244C195.231 236.498 194.661 231.423 195.965 226.698C196.584 224.456 202.589 213.56 203.047 211.5C204.178 206.414 194.3 229.592 193.508 234.742C193.398 235.459 191.515 240.726 191.87 238.065C192.111 236.256 194.825 224.943 193.364 226.89C192.211 228.426 188.449 235.6 188.449 235.512C188.449 233.71 192.306 227.375 190.762 225.831C190.458 225.527 199.214 211.404 203.5 209.5C205.515 208.605 203.728 203.981 203.047 205.457C201.359 209.113 199.385 212.544 197.7 216.101C196.303 219.049 200.299 210.773 200.879 209.695C203.209 205.37 196.72 218.597 194.616 223.037C193.011 226.426 191.176 231.026 190.955 234.79C190.814 237.179 190.51 241.186 189.654 243.411C189.372 244.144 188.682 250.156 189.413 247.313C190.478 243.173 191.582 238.833 192.737 234.79C194.345 229.163 191.822 246.47 191.822 252.322C191.822 259.327 189.888 265.635 187.679 272.263C185.948 277.454 182.637 282.466 179.296 286.761C176.812 289.954 180.985 281.526 181.415 280.451C183.747 274.623 178.366 283.622 177.609 284.883C176.477 286.77 174.8 295.605 176.405 292.396C176.904 291.398 178.298 287.341 178.862 289.314C179.08 290.077 181.783 288.377 179.681 291.529" stroke="black" stroke-width="6" stroke-linecap="round"/>
<path d="M376.536 166.683C375.055 166.053 369.661 163.65 373.79 166.008C376.109 167.333 378.355 168.848 380.535 170.391C380.537 170.393 382.251 171.798 382.221 171.692C382.121 171.342 377.585 168.774 377.018 168.465C375.898 167.854 373.934 164.926 373.934 166.201C373.934 167.601 383.898 171.907 381.546 171.21C379.64 170.646 376.833 170.351 375.332 168.85C373.542 167.061 380.165 170.352 382.606 171.018" stroke="black" stroke-width="6" stroke-linecap="round"/>
</svg>
