<svg width="43" height="71" viewBox="0 0 43 71" fill="none" xmlns="http://www.w3.org/2000/svg">
<path fill-rule="evenodd" clip-rule="evenodd" d="M11.5677 4.26605L11.931 6.70349H37.731L38.0943 4.26605H11.5677ZM36.9434 12.1886L37.3071 9.75085H12.3549L12.7185 12.1886H36.9434ZM6.66193 0H43L40.5775 16.4547H9.08453L6.66193 0ZM4.23938 37.2978C4.23938 40.3451 8.41817 41.3812 11.8704 41.3812C15.8677 41.3812 16.7761 40.5281 16.7761 38.6385C16.7761 36.7496 15.8677 35.8961 11.8704 35.8961V35.1646C16.9576 32.4222 24.4071 30.5939 31.0084 30.5939C33.3098 30.5939 35.1872 30.7159 36.6411 31.0815V23.1585H11.204C6.54075 30.6549 4.23938 34.6774 4.23938 37.2978ZM37.3673 39.7966C37.3673 34.5554 36.5199 33.6412 34.0367 33.6412H32.9465C34.4606 35.2865 34.8845 37.6637 34.8845 41.0153V43.3925C34.8845 45.0377 34.7633 46.5004 33.9761 47.7195C36.6411 47.5362 37.3673 46.4394 37.3673 41.5641V39.7966ZM30.9478 43.3925L30.9478 41.0153C30.9478 35.7741 30.1 34.86 27.6168 34.86H26.4663C27.9805 36.5056 28.4044 38.8824 28.4044 42.2344V44.6111C28.4044 46.5614 28.2832 48.207 27.3744 49.5477C30.1606 49.4257 30.9478 48.3897 30.9478 43.3925ZM24.4677 44.6111V42.2344C24.4677 36.9928 23.6195 36.0787 21.1367 36.0787C20.8337 36.0787 20.5309 36.0787 20.2885 36.14C20.773 36.9322 21.0155 38.0289 21.0155 39.248C21.0155 41.5028 20.0465 43.3925 17.8057 44.4892V44.6111C17.8057 49.8523 18.6535 50.7665 21.1367 50.7665C23.6195 50.7665 24.4677 49.8523 24.4677 44.6111ZM13.869 45.5253C13.2633 45.5863 12.5973 45.6473 11.8704 45.6473H10.5983L10.5983 60.5786C10.5983 65.8198 11.7491 66.7339 14.2323 66.7339C16.7155 66.7339 17.866 65.8198 17.866 60.5786V54.4843C15.3225 53.3872 13.9899 50.7055 13.869 45.5253ZM0 38.3339C0 33.0927 5.99599 23.7071 9.08453 18.8925H40.5775V34.3724C41.062 35.7135 41.3044 37.4808 41.3044 39.7966V41.5641C41.3044 49.3038 38.9424 51.9855 34.0367 51.9855C33.6124 51.9855 33.1889 51.9855 32.765 51.9246C31.5536 53.2653 29.8576 53.8138 27.6168 53.8138C26.9505 53.8138 26.3451 53.7528 25.7394 53.6308C24.7097 54.4843 23.438 54.9106 21.8027 55.0325V60.5786C21.8027 68.3182 19.1377 71 14.2323 71C9.32657 71 6.66193 68.3182 6.66193 60.5786L6.66193 45.1597C2.30132 44.0016 0 41.1982 0 38.3339Z" fill="white"/>
</svg>
