<svg width="174" height="31" viewBox="0 0 174 31" fill="none" xmlns="http://www.w3.org/2000/svg">
<g clip-path="url(#clip0_1102_1865)">
<path d="M5.92123 15.4286V26.89H0V4.57031H1.84432L13.6545 15.5238V4.66556H19.5757V26.9535H17.8284L5.92123 15.4286Z" fill="white"/>
<path d="M38.5923 9.71318H30.3739V12.8881H37.9453V17.968H30.3739V21.5874H38.8836V26.8895H24.4526V4.66504H38.5923V9.71318Z" fill="white"/>
<path d="M57.2289 5.04603L61.2088 17.206H61.3059L62.8914 10.7292L64.9946 4.66504H71.2069V5.52227L63.1178 27.1118H59.9793L56.0642 16.9521H55.9671L52.2137 27.1118H48.9134L40.8242 5.52227V4.66504H47.0367L49.1723 10.7292L50.8871 17.206H50.9842L54.8022 5.04603H57.2289Z" fill="white"/>
<path d="M86.7032 20.0705C86.7032 21.5944 88.4829 22.3564 90.2948 22.3564C91.9774 22.3564 93.757 21.5944 93.757 20.261C93.757 18.1338 91.2331 18.0385 89.583 17.9433C85.4414 17.6892 81.2997 16.07 81.2997 11.4347C81.2997 6.60876 85.4738 4.16406 90.1008 4.16406C94.4689 4.16406 98.9017 6.60876 98.8046 11.4347H93.2716C93.2392 9.91068 91.7832 9.2757 90.1977 9.2757C88.8712 9.2757 87.124 9.62494 87.124 11.3077C87.124 12.7998 88.4182 13.1491 90.5861 13.3714C95.4072 13.7841 99.6134 14.8953 99.6134 20.2927C99.6134 24.9599 94.9866 27.4045 90.3596 27.4045C85.5708 27.4045 80.9762 25.0551 81.0733 20.0705H86.7032Z" fill="white"/>
<path d="M116.212 26.8959V18.0061H109.191V26.8959H103.27V4.67139H109.191V12.6976H116.212V4.66504H122.133V26.8896H116.212V26.8959Z" fill="white"/>
<path d="M154.166 19.7142H146.918V26.8896H140.998V4.66504H155.137V9.71318H146.918V14.6344H154.166V19.7142Z" fill="white"/>
<path d="M157.175 9.74493V4.66504H174.001V9.74493H168.467V26.8896H162.74V9.74493H157.175Z" fill="white"/>
<path d="M137.578 31L126.157 26.9106V3.75912L137.578 0V31Z" fill="#3BD9AF"/>
</g>
<defs>
<clipPath id="clip0_1102_1865">
<rect width="174" height="31" fill="white"/>
</clipPath>
</defs>
</svg>
